<?xml version="1.0" encoding="UTF-8" standalone="no"?>
<!DOCTYPE svg PUBLIC "-//W3C//DTD SVG 1.1//EN"
 "http://www.w3.org/Graphics/SVG/1.1/DTD/svg11.dtd">
<!-- Generated by graphviz version 2.36.0 (20140111.2315)
 -->
<!-- Title: controllers_diagram Pages: 1 -->
<svg width="1435pt" height="1459pt"
 viewBox="0.00 0.00 1434.55 1459.00" xmlns="http://www.w3.org/2000/svg" xmlns:xlink="http://www.w3.org/1999/xlink">
<g id="graph0" class="graph" transform="scale(1 1) rotate(0) translate(4 1455)">
<title>controllers_diagram</title>
<polygon fill="white" stroke="none" points="-4,4 -4,-1455 1430.55,-1455 1430.55,4 -4,4"/>
<!-- _diagram_info -->
<g id="node1" class="node"><title>_diagram_info</title>
<text text-anchor="start" x="910" y="-145.6" font-family="Times,serif" font-size="13.00">Controllers diagram</text>
<text text-anchor="start" x="910" y="-131.6" font-family="Times,serif" font-size="13.00">Date: Jun 09 2014 &#45; 13:27</text>
<text text-anchor="start" x="910" y="-117.6" font-family="Times,serif" font-size="13.00">Migration version: 20140326155410</text>
<text text-anchor="start" x="910" y="-103.6" font-family="Times,serif" font-size="13.00">Generated by RailRoady 1.1.1</text>
<text text-anchor="start" x="910" y="-89.6" font-family="Times,serif" font-size="13.00">http://railroady.prestonlee.com</text>
</g>
<!-- PostsController -->
<g id="node2" class="node"><title>PostsController</title>
<path fill="none" stroke="black" d="M176,-611.517C176,-611.517 305,-611.517 305,-611.517 311,-611.517 317,-617.517 317,-623.517 317,-623.517 317,-887.517 317,-887.517 317,-893.517 311,-899.517 305,-899.517 305,-899.517 176,-899.517 176,-899.517 170,-899.517 164,-893.517 164,-887.517 164,-887.517 164,-623.517 164,-623.517 164,-617.517 170,-611.517 176,-611.517"/>
<text text-anchor="middle" x="240.5" y="-884.317" font-family="Times,serif" font-size="14.00">PostsController</text>
<polyline fill="none" stroke="black" points="164,-876.517 317,-876.517 "/>
<polyline fill="none" stroke="black" points="164,-852.517 317,-852.517 "/>
<text text-anchor="start" x="172" y="-837.317" font-family="Times,serif" font-size="14.00">collection_path</text>
<text text-anchor="start" x="172" y="-822.317" font-family="Times,serif" font-size="14.00">collection_url</text>
<text text-anchor="start" x="172" y="-807.317" font-family="Times,serif" font-size="14.00">edit_resource_path</text>
<text text-anchor="start" x="172" y="-792.317" font-family="Times,serif" font-size="14.00">edit_resource_url</text>
<text text-anchor="start" x="172" y="-777.317" font-family="Times,serif" font-size="14.00">new_resource_path</text>
<text text-anchor="start" x="172" y="-762.317" font-family="Times,serif" font-size="14.00">new_resource_url</text>
<text text-anchor="start" x="172" y="-747.317" font-family="Times,serif" font-size="14.00">parents_symbols</text>
<text text-anchor="start" x="172" y="-732.317" font-family="Times,serif" font-size="14.00">parents_symbols?</text>
<text text-anchor="start" x="172" y="-717.317" font-family="Times,serif" font-size="14.00">resource_class</text>
<text text-anchor="start" x="172" y="-702.317" font-family="Times,serif" font-size="14.00">resource_class?</text>
<text text-anchor="start" x="172" y="-687.317" font-family="Times,serif" font-size="14.00">resource_path</text>
<text text-anchor="start" x="172" y="-672.317" font-family="Times,serif" font-size="14.00">resource_url</text>
<text text-anchor="start" x="172" y="-657.317" font-family="Times,serif" font-size="14.00">resources_configuration</text>
<text text-anchor="start" x="172" y="-642.317" font-family="Times,serif" font-size="14.00">resources_configuration?</text>
<polyline fill="none" stroke="black" points="164,-634.517 317,-634.517 "/>
<text text-anchor="start" x="172" y="-619.317" font-family="Times,serif" font-size="14.00">_layout</text>
</g>
<!-- DashboardsController -->
<g id="node3" class="node"><title>DashboardsController</title>
<path fill="none" stroke="black" d="M742.12,-613.46C742.12,-613.46 871.12,-613.46 871.12,-613.46 877.12,-613.46 883.12,-619.46 883.12,-625.46 883.12,-625.46 883.12,-888.46 883.12,-888.46 883.12,-894.46 877.12,-900.46 871.12,-900.46 871.12,-900.46 742.12,-900.46 742.12,-900.46 736.12,-900.46 730.12,-894.46 730.12,-888.46 730.12,-888.46 730.12,-625.46 730.12,-625.46 730.12,-619.46 736.12,-613.46 742.12,-613.46"/>
<text text-anchor="middle" x="806.62" y="-885.26" font-family="Times,serif" font-size="14.00">DashboardsController</text>
<polyline fill="none" stroke="black" points="730.12,-877.46 883.12,-877.46 "/>
<text text-anchor="start" x="738.12" y="-862.26" font-family="Times,serif" font-size="14.00">index</text>
<polyline fill="none" stroke="black" points="730.12,-854.46 883.12,-854.46 "/>
<text text-anchor="start" x="738.12" y="-839.26" font-family="Times,serif" font-size="14.00">collection_path</text>
<text text-anchor="start" x="738.12" y="-824.26" font-family="Times,serif" font-size="14.00">collection_url</text>
<text text-anchor="start" x="738.12" y="-809.26" font-family="Times,serif" font-size="14.00">edit_resource_path</text>
<text text-anchor="start" x="738.12" y="-794.26" font-family="Times,serif" font-size="14.00">edit_resource_url</text>
<text text-anchor="start" x="738.12" y="-779.26" font-family="Times,serif" font-size="14.00">new_resource_path</text>
<text text-anchor="start" x="738.12" y="-764.26" font-family="Times,serif" font-size="14.00">new_resource_url</text>
<text text-anchor="start" x="738.12" y="-749.26" font-family="Times,serif" font-size="14.00">parents_symbols</text>
<text text-anchor="start" x="738.12" y="-734.26" font-family="Times,serif" font-size="14.00">parents_symbols?</text>
<text text-anchor="start" x="738.12" y="-719.26" font-family="Times,serif" font-size="14.00">resource_class</text>
<text text-anchor="start" x="738.12" y="-704.26" font-family="Times,serif" font-size="14.00">resource_class?</text>
<text text-anchor="start" x="738.12" y="-689.26" font-family="Times,serif" font-size="14.00">resource_path</text>
<text text-anchor="start" x="738.12" y="-674.26" font-family="Times,serif" font-size="14.00">resource_url</text>
<text text-anchor="start" x="738.12" y="-659.26" font-family="Times,serif" font-size="14.00">resources_configuration</text>
<text text-anchor="start" x="738.12" y="-644.26" font-family="Times,serif" font-size="14.00">resources_configuration?</text>
<polyline fill="none" stroke="black" points="730.12,-636.46 883.12,-636.46 "/>
<text text-anchor="start" x="738.12" y="-621.26" font-family="Times,serif" font-size="14.00">_layout</text>
</g>
<!-- EventsController -->
<g id="node4" class="node"><title>EventsController</title>
<path fill="none" stroke="black" d="M217.384,-44.825C217.384,-44.825 397.384,-44.825 397.384,-44.825 403.384,-44.825 409.384,-50.825 409.384,-56.825 409.384,-56.825 409.384,-230.825 409.384,-230.825 409.384,-236.825 403.384,-242.825 397.384,-242.825 397.384,-242.825 217.384,-242.825 217.384,-242.825 211.384,-242.825 205.384,-236.825 205.384,-230.825 205.384,-230.825 205.384,-56.825 205.384,-56.825 205.384,-50.825 211.384,-44.825 217.384,-44.825"/>
<text text-anchor="middle" x="307.384" y="-227.625" font-family="Times,serif" font-size="14.00">EventsController</text>
<polyline fill="none" stroke="black" points="205.384,-219.825 409.384,-219.825 "/>
<text text-anchor="start" x="213.384" y="-204.625" font-family="Times,serif" font-size="14.00">_one_time_conditions_valid_140?</text>
<text text-anchor="start" x="213.384" y="-189.625" font-family="Times,serif" font-size="14.00">create</text>
<text text-anchor="start" x="213.384" y="-174.625" font-family="Times,serif" font-size="14.00">destroy</text>
<text text-anchor="start" x="213.384" y="-159.625" font-family="Times,serif" font-size="14.00">index</text>
<text text-anchor="start" x="213.384" y="-144.625" font-family="Times,serif" font-size="14.00">new</text>
<text text-anchor="start" x="213.384" y="-129.625" font-family="Times,serif" font-size="14.00">show</text>
<text text-anchor="start" x="213.384" y="-114.625" font-family="Times,serif" font-size="14.00">update</text>
<polyline fill="none" stroke="black" points="205.384,-106.825 409.384,-106.825 "/>
<polyline fill="none" stroke="black" points="205.384,-82.825 409.384,-82.825 "/>
<text text-anchor="start" x="213.384" y="-67.625" font-family="Times,serif" font-size="14.00">_layout</text>
<text text-anchor="start" x="213.384" y="-52.625" font-family="Times,serif" font-size="14.00">find_event</text>
</g>
<!-- LanguagesController -->
<g id="node5" class="node"><title>LanguagesController</title>
<path fill="none" stroke="black" d="M217.515,-1011.05C217.515,-1011.05 397.515,-1011.05 397.515,-1011.05 403.515,-1011.05 409.515,-1017.05 409.515,-1023.05 409.515,-1023.05 409.515,-1107.05 409.515,-1107.05 409.515,-1113.05 403.515,-1119.05 397.515,-1119.05 397.515,-1119.05 217.515,-1119.05 217.515,-1119.05 211.515,-1119.05 205.515,-1113.05 205.515,-1107.05 205.515,-1107.05 205.515,-1023.05 205.515,-1023.05 205.515,-1017.05 211.515,-1011.05 217.515,-1011.05"/>
<text text-anchor="middle" x="307.515" y="-1103.85" font-family="Times,serif" font-size="14.00">LanguagesController</text>
<polyline fill="none" stroke="black" points="205.515,-1096.05 409.515,-1096.05 "/>
<text text-anchor="start" x="213.515" y="-1080.85" font-family="Times,serif" font-size="14.00">_one_time_conditions_valid_144?</text>
<polyline fill="none" stroke="black" points="205.515,-1073.05 409.515,-1073.05 "/>
<polyline fill="none" stroke="black" points="205.515,-1049.05 409.515,-1049.05 "/>
<text text-anchor="start" x="213.515" y="-1033.85" font-family="Times,serif" font-size="14.00">_layout</text>
<text text-anchor="start" x="213.515" y="-1018.85" font-family="Times,serif" font-size="14.00">lenguage</text>
</g>
<!-- Users::RegistrationsController -->
<g id="node6" class="node"><title>Users::RegistrationsController</title>
<path fill="none" stroke="black" d="M914,-984.5C914,-984.5 1072,-984.5 1072,-984.5 1078,-984.5 1084,-990.5 1084,-996.5 1084,-996.5 1084,-1065.5 1084,-1065.5 1084,-1071.5 1078,-1077.5 1072,-1077.5 1072,-1077.5 914,-1077.5 914,-1077.5 908,-1077.5 902,-1071.5 902,-1065.5 902,-1065.5 902,-996.5 902,-996.5 902,-990.5 908,-984.5 914,-984.5"/>
<text text-anchor="middle" x="993" y="-1062.3" font-family="Times,serif" font-size="14.00">Users::RegistrationsController</text>
<polyline fill="none" stroke="black" points="902,-1054.5 1084,-1054.5 "/>
<text text-anchor="start" x="910" y="-1039.3" font-family="Times,serif" font-size="14.00">update</text>
<polyline fill="none" stroke="black" points="902,-1031.5 1084,-1031.5 "/>
<polyline fill="none" stroke="black" points="902,-1007.5 1084,-1007.5 "/>
<text text-anchor="start" x="910" y="-992.3" font-family="Times,serif" font-size="14.00">_layout</text>
</g>
<!-- Users::OmniauthCallbacksController -->
<g id="node7" class="node"><title>Users::OmniauthCallbacksController</title>
<path fill="none" stroke="black" d="M914,-246.5C914,-246.5 1108,-246.5 1108,-246.5 1114,-246.5 1120,-252.5 1120,-258.5 1120,-258.5 1120,-327.5 1120,-327.5 1120,-333.5 1114,-339.5 1108,-339.5 1108,-339.5 914,-339.5 914,-339.5 908,-339.5 902,-333.5 902,-327.5 902,-327.5 902,-258.5 902,-258.5 902,-252.5 908,-246.5 914,-246.5"/>
<text text-anchor="middle" x="1011" y="-324.3" font-family="Times,serif" font-size="14.00">Users::OmniauthCallbacksController</text>
<polyline fill="none" stroke="black" points="902,-316.5 1120,-316.5 "/>
<text text-anchor="start" x="910" y="-301.3" font-family="Times,serif" font-size="14.00">google_oauth2</text>
<polyline fill="none" stroke="black" points="902,-293.5 1120,-293.5 "/>
<polyline fill="none" stroke="black" points="902,-269.5 1120,-269.5 "/>
<text text-anchor="start" x="910" y="-254.3" font-family="Times,serif" font-size="14.00">_layout</text>
</g>
<!-- UsersController -->
<g id="node8" class="node"><title>UsersController</title>
<path fill="none" stroke="black" d="M675.517,-922.181C675.517,-922.181 804.517,-922.181 804.517,-922.181 810.517,-922.181 816.517,-928.181 816.517,-934.181 816.517,-934.181 816.517,-1197.18 816.517,-1197.18 816.517,-1203.18 810.517,-1209.18 804.517,-1209.18 804.517,-1209.18 675.517,-1209.18 675.517,-1209.18 669.517,-1209.18 663.517,-1203.18 663.517,-1197.18 663.517,-1197.18 663.517,-934.181 663.517,-934.181 663.517,-928.181 669.517,-922.181 675.517,-922.181"/>
<text text-anchor="middle" x="740.017" y="-1193.98" font-family="Times,serif" font-size="14.00">UsersController</text>
<polyline fill="none" stroke="black" points="663.517,-1186.18 816.517,-1186.18 "/>
<text text-anchor="start" x="671.517" y="-1170.98" font-family="Times,serif" font-size="14.00">index</text>
<polyline fill="none" stroke="black" points="663.517,-1163.18 816.517,-1163.18 "/>
<text text-anchor="start" x="671.517" y="-1147.98" font-family="Times,serif" font-size="14.00">collection_path</text>
<text text-anchor="start" x="671.517" y="-1132.98" font-family="Times,serif" font-size="14.00">collection_url</text>
<text text-anchor="start" x="671.517" y="-1117.98" font-family="Times,serif" font-size="14.00">edit_resource_path</text>
<text text-anchor="start" x="671.517" y="-1102.98" font-family="Times,serif" font-size="14.00">edit_resource_url</text>
<text text-anchor="start" x="671.517" y="-1087.98" font-family="Times,serif" font-size="14.00">new_resource_path</text>
<text text-anchor="start" x="671.517" y="-1072.98" font-family="Times,serif" font-size="14.00">new_resource_url</text>
<text text-anchor="start" x="671.517" y="-1057.98" font-family="Times,serif" font-size="14.00">parents_symbols</text>
<text text-anchor="start" x="671.517" y="-1042.98" font-family="Times,serif" font-size="14.00">parents_symbols?</text>
<text text-anchor="start" x="671.517" y="-1027.98" font-family="Times,serif" font-size="14.00">resource_class</text>
<text text-anchor="start" x="671.517" y="-1012.98" font-family="Times,serif" font-size="14.00">resource_class?</text>
<text text-anchor="start" x="671.517" y="-997.981" font-family="Times,serif" font-size="14.00">resource_path</text>
<text text-anchor="start" x="671.517" y="-982.981" font-family="Times,serif" font-size="14.00">resource_url</text>
<text text-anchor="start" x="671.517" y="-967.981" font-family="Times,serif" font-size="14.00">resources_configuration</text>
<text text-anchor="start" x="671.517" y="-952.981" font-family="Times,serif" font-size="14.00">resources_configuration?</text>
<polyline fill="none" stroke="black" points="663.517,-945.181 816.517,-945.181 "/>
<text text-anchor="start" x="671.517" y="-929.981" font-family="Times,serif" font-size="14.00">_layout</text>
</g>
<!-- ApplicationController -->
<g id="node9" class="node"><title>ApplicationController</title>
<path fill="none" stroke="black" d="M433.857,-529.306C433.857,-529.306 613.857,-529.306 613.857,-529.306 619.857,-529.306 625.857,-535.306 625.857,-541.306 625.857,-541.306 625.857,-685.306 625.857,-685.306 625.857,-691.306 619.857,-697.306 613.857,-697.306 613.857,-697.306 433.857,-697.306 433.857,-697.306 427.857,-697.306 421.857,-691.306 421.857,-685.306 421.857,-685.306 421.857,-541.306 421.857,-541.306 421.857,-535.306 427.857,-529.306 433.857,-529.306"/>
<text text-anchor="middle" x="523.857" y="-682.106" font-family="Times,serif" font-size="14.00">ApplicationController</text>
<polyline fill="none" stroke="black" points="421.857,-674.306 625.857,-674.306 "/>
<text text-anchor="start" x="429.857" y="-659.106" font-family="Times,serif" font-size="14.00">_one_time_conditions_valid_132?</text>
<text text-anchor="start" x="429.857" y="-644.106" font-family="Times,serif" font-size="14.00">_one_time_conditions_valid_134?</text>
<text text-anchor="start" x="429.857" y="-629.106" font-family="Times,serif" font-size="14.00">_one_time_conditions_valid_136?</text>
<text text-anchor="start" x="429.857" y="-614.106" font-family="Times,serif" font-size="14.00">layout_by_resource</text>
<polyline fill="none" stroke="black" points="421.857,-606.306 625.857,-606.306 "/>
<polyline fill="none" stroke="black" points="421.857,-582.306 625.857,-582.306 "/>
<text text-anchor="start" x="429.857" y="-567.106" font-family="Times,serif" font-size="14.00">_layout</text>
<text text-anchor="start" x="429.857" y="-552.106" font-family="Times,serif" font-size="14.00">lenguage</text>
<text text-anchor="start" x="429.857" y="-537.106" font-family="Times,serif" font-size="14.00">render_error</text>
</g>
<!-- ApplicationController&#45;&gt;PostsController -->
<g id="edge1" class="edge"><title>ApplicationController&#45;&gt;PostsController</title>
<path fill="none" stroke="black" d="M421.559,-664.648C387.159,-681.912 349.395,-700.865 317.297,-716.974"/>
</g>
<!-- ApplicationController&#45;&gt;DashboardsController -->
<g id="edge2" class="edge"><title>ApplicationController&#45;&gt;DashboardsController</title>
<path fill="none" stroke="black" d="M625.941,-665.169C660.268,-682.608 697.953,-701.754 729.983,-718.026"/>
</g>
<!-- ApplicationController&#45;&gt;EventsController -->
<g id="edge3" class="edge"><title>ApplicationController&#45;&gt;EventsController</title>
<path fill="none" stroke="black" d="M485.031,-529.101C448.043,-448.884 392.351,-328.1 353.205,-243.202"/>
</g>
<!-- ApplicationController&#45;&gt;LanguagesController -->
<g id="edge4" class="edge"><title>ApplicationController&#45;&gt;LanguagesController</title>
<path fill="none" stroke="black" d="M483.545,-697.482C439.658,-789.123 370.772,-932.966 333.521,-1010.75"/>
</g>
<!-- ApplicationController&#45;&gt;UsersController -->
<g id="edge7" class="edge"><title>ApplicationController&#45;&gt;UsersController</title>
<path fill="none" stroke="black" d="M564.008,-697.334C594.105,-760.319 636.018,-848.035 671.395,-922.07"/>
</g>
<!-- ErrorsController -->
<g id="node10" class="node"><title>ErrorsController</title>
<path fill="none" stroke="black" d="M206.669,-404.453C206.669,-404.453 288.669,-404.453 288.669,-404.453 294.669,-404.453 300.669,-410.453 300.669,-416.453 300.669,-416.453 300.669,-485.453 300.669,-485.453 300.669,-491.453 294.669,-497.453 288.669,-497.453 288.669,-497.453 206.669,-497.453 206.669,-497.453 200.669,-497.453 194.669,-491.453 194.669,-485.453 194.669,-485.453 194.669,-416.453 194.669,-416.453 194.669,-410.453 200.669,-404.453 206.669,-404.453"/>
<text text-anchor="middle" x="247.669" y="-482.253" font-family="Times,serif" font-size="14.00">ErrorsController</text>
<polyline fill="none" stroke="black" points="194.669,-474.453 300.669,-474.453 "/>
<text text-anchor="start" x="202.669" y="-459.253" font-family="Times,serif" font-size="14.00">error_404</text>
<polyline fill="none" stroke="black" points="194.669,-451.453 300.669,-451.453 "/>
<polyline fill="none" stroke="black" points="194.669,-427.453 300.669,-427.453 "/>
<text text-anchor="start" x="202.669" y="-412.253" font-family="Times,serif" font-size="14.00">_layout</text>
</g>
<!-- ApplicationController&#45;&gt;ErrorsController -->
<g id="edge8" class="edge"><title>ApplicationController&#45;&gt;ErrorsController</title>
<path fill="none" stroke="black" d="M421.799,-553.313C380.771,-529.195 335.18,-502.395 300.942,-482.269"/>
</g>
<!-- CalendarsController -->
<g id="node16" class="node"><title>CalendarsController</title>
<path fill="none" stroke="black" d="M749.793,-405.382C749.793,-405.382 851.793,-405.382 851.793,-405.382 857.793,-405.382 863.793,-411.382 863.793,-417.382 863.793,-417.382 863.793,-487.382 863.793,-487.382 863.793,-493.382 857.793,-499.382 851.793,-499.382 851.793,-499.382 749.793,-499.382 749.793,-499.382 743.793,-499.382 737.793,-493.382 737.793,-487.382 737.793,-487.382 737.793,-417.382 737.793,-417.382 737.793,-411.382 743.793,-405.382 749.793,-405.382"/>
<text text-anchor="middle" x="800.793" y="-484.182" font-family="Times,serif" font-size="14.00">CalendarsController</text>
<polyline fill="none" stroke="black" points="737.793,-476.382 863.793,-476.382 "/>
<polyline fill="none" stroke="black" points="737.793,-452.382 863.793,-452.382 "/>
<polyline fill="none" stroke="black" points="737.793,-428.382 863.793,-428.382 "/>
<text text-anchor="start" x="745.793" y="-413.182" font-family="Times,serif" font-size="14.00">_layout</text>
</g>
<!-- ApplicationController&#45;&gt;CalendarsController -->
<g id="edge9" class="edge"><title>ApplicationController&#45;&gt;CalendarsController</title>
<path fill="none" stroke="black" d="M626.191,-553.841C663.478,-532.174 704.524,-508.323 737.445,-489.193"/>
</g>
<!-- TreesController -->
<g id="node17" class="node"><title>TreesController</title>
<path fill="none" stroke="black" d="M675.973,-0.5C675.973,-0.5 804.973,-0.5 804.973,-0.5 810.973,-0.5 816.973,-6.5 816.973,-12.5 816.973,-12.5 816.973,-276.5 816.973,-276.5 816.973,-282.5 810.973,-288.5 804.973,-288.5 804.973,-288.5 675.973,-288.5 675.973,-288.5 669.973,-288.5 663.973,-282.5 663.973,-276.5 663.973,-276.5 663.973,-12.5 663.973,-12.5 663.973,-6.5 669.973,-0.5 675.973,-0.5"/>
<text text-anchor="middle" x="740.473" y="-273.3" font-family="Times,serif" font-size="14.00">TreesController</text>
<polyline fill="none" stroke="black" points="663.973,-265.5 816.973,-265.5 "/>
<polyline fill="none" stroke="black" points="663.973,-241.5 816.973,-241.5 "/>
<text text-anchor="start" x="671.973" y="-226.3" font-family="Times,serif" font-size="14.00">collection_path</text>
<text text-anchor="start" x="671.973" y="-211.3" font-family="Times,serif" font-size="14.00">collection_url</text>
<text text-anchor="start" x="671.973" y="-196.3" font-family="Times,serif" font-size="14.00">edit_resource_path</text>
<text text-anchor="start" x="671.973" y="-181.3" font-family="Times,serif" font-size="14.00">edit_resource_url</text>
<text text-anchor="start" x="671.973" y="-166.3" font-family="Times,serif" font-size="14.00">new_resource_path</text>
<text text-anchor="start" x="671.973" y="-151.3" font-family="Times,serif" font-size="14.00">new_resource_url</text>
<text text-anchor="start" x="671.973" y="-136.3" font-family="Times,serif" font-size="14.00">parents_symbols</text>
<text text-anchor="start" x="671.973" y="-121.3" font-family="Times,serif" font-size="14.00">parents_symbols?</text>
<text text-anchor="start" x="671.973" y="-106.3" font-family="Times,serif" font-size="14.00">resource_class</text>
<text text-anchor="start" x="671.973" y="-91.3" font-family="Times,serif" font-size="14.00">resource_class?</text>
<text text-anchor="start" x="671.973" y="-76.3" font-family="Times,serif" font-size="14.00">resource_path</text>
<text text-anchor="start" x="671.973" y="-61.3" font-family="Times,serif" font-size="14.00">resource_url</text>
<text text-anchor="start" x="671.973" y="-46.3" font-family="Times,serif" font-size="14.00">resources_configuration</text>
<text text-anchor="start" x="671.973" y="-31.3" font-family="Times,serif" font-size="14.00">resources_configuration?</text>
<polyline fill="none" stroke="black" points="663.973,-23.5 816.973,-23.5 "/>
<text text-anchor="start" x="671.973" y="-8.3" font-family="Times,serif" font-size="14.00">_layout</text>
</g>
<!-- ApplicationController&#45;&gt;TreesController -->
<g id="edge10" class="edge"><title>ApplicationController&#45;&gt;TreesController</title>
<path fill="none" stroke="black" d="M562.708,-529.223C593.572,-462.427 637.451,-367.463 673.891,-288.599"/>
</g>
<!-- Admin::PostsController -->
<g id="node11" class="node"><title>Admin::PostsController</title>
<path fill="none" stroke="black" d="M955,-410.5C955,-410.5 1084,-410.5 1084,-410.5 1090,-410.5 1096,-416.5 1096,-422.5 1096,-422.5 1096,-700.5 1096,-700.5 1096,-706.5 1090,-712.5 1084,-712.5 1084,-712.5 955,-712.5 955,-712.5 949,-712.5 943,-706.5 943,-700.5 943,-700.5 943,-422.5 943,-422.5 943,-416.5 949,-410.5 955,-410.5"/>
<text text-anchor="middle" x="1019.5" y="-697.3" font-family="Times,serif" font-size="14.00">Admin::PostsController</text>
<polyline fill="none" stroke="black" points="943,-689.5 1096,-689.5 "/>
<text text-anchor="start" x="951" y="-674.3" font-family="Times,serif" font-size="14.00">index</text>
<text text-anchor="start" x="951" y="-659.3" font-family="Times,serif" font-size="14.00">show</text>
<polyline fill="none" stroke="black" points="943,-651.5 1096,-651.5 "/>
<text text-anchor="start" x="951" y="-636.3" font-family="Times,serif" font-size="14.00">collection_path</text>
<text text-anchor="start" x="951" y="-621.3" font-family="Times,serif" font-size="14.00">collection_url</text>
<text text-anchor="start" x="951" y="-606.3" font-family="Times,serif" font-size="14.00">edit_resource_path</text>
<text text-anchor="start" x="951" y="-591.3" font-family="Times,serif" font-size="14.00">edit_resource_url</text>
<text text-anchor="start" x="951" y="-576.3" font-family="Times,serif" font-size="14.00">new_resource_path</text>
<text text-anchor="start" x="951" y="-561.3" font-family="Times,serif" font-size="14.00">new_resource_url</text>
<text text-anchor="start" x="951" y="-546.3" font-family="Times,serif" font-size="14.00">parents_symbols</text>
<text text-anchor="start" x="951" y="-531.3" font-family="Times,serif" font-size="14.00">parents_symbols?</text>
<text text-anchor="start" x="951" y="-516.3" font-family="Times,serif" font-size="14.00">resource_class</text>
<text text-anchor="start" x="951" y="-501.3" font-family="Times,serif" font-size="14.00">resource_class?</text>
<text text-anchor="start" x="951" y="-486.3" font-family="Times,serif" font-size="14.00">resource_path</text>
<text text-anchor="start" x="951" y="-471.3" font-family="Times,serif" font-size="14.00">resource_url</text>
<text text-anchor="start" x="951" y="-456.3" font-family="Times,serif" font-size="14.00">resources_configuration</text>
<text text-anchor="start" x="951" y="-441.3" font-family="Times,serif" font-size="14.00">resources_configuration?</text>
<polyline fill="none" stroke="black" points="943,-433.5 1096,-433.5 "/>
<text text-anchor="start" x="951" y="-418.3" font-family="Times,serif" font-size="14.00">_layout</text>
</g>
<!-- Admin::DashboardsController -->
<g id="node12" class="node"><title>Admin::DashboardsController</title>
<path fill="none" stroke="black" d="M1078,-1148.5C1078,-1148.5 1236,-1148.5 1236,-1148.5 1242,-1148.5 1248,-1154.5 1248,-1160.5 1248,-1160.5 1248,-1438.5 1248,-1438.5 1248,-1444.5 1242,-1450.5 1236,-1450.5 1236,-1450.5 1078,-1450.5 1078,-1450.5 1072,-1450.5 1066,-1444.5 1066,-1438.5 1066,-1438.5 1066,-1160.5 1066,-1160.5 1066,-1154.5 1072,-1148.5 1078,-1148.5"/>
<text text-anchor="middle" x="1157" y="-1435.3" font-family="Times,serif" font-size="14.00">Admin::DashboardsController</text>
<polyline fill="none" stroke="black" points="1066,-1427.5 1248,-1427.5 "/>
<text text-anchor="start" x="1074" y="-1412.3" font-family="Times,serif" font-size="14.00">index</text>
<text text-anchor="start" x="1074" y="-1397.3" font-family="Times,serif" font-size="14.00">show</text>
<polyline fill="none" stroke="black" points="1066,-1389.5 1248,-1389.5 "/>
<text text-anchor="start" x="1074" y="-1374.3" font-family="Times,serif" font-size="14.00">collection_path</text>
<text text-anchor="start" x="1074" y="-1359.3" font-family="Times,serif" font-size="14.00">collection_url</text>
<text text-anchor="start" x="1074" y="-1344.3" font-family="Times,serif" font-size="14.00">edit_resource_path</text>
<text text-anchor="start" x="1074" y="-1329.3" font-family="Times,serif" font-size="14.00">edit_resource_url</text>
<text text-anchor="start" x="1074" y="-1314.3" font-family="Times,serif" font-size="14.00">new_resource_path</text>
<text text-anchor="start" x="1074" y="-1299.3" font-family="Times,serif" font-size="14.00">new_resource_url</text>
<text text-anchor="start" x="1074" y="-1284.3" font-family="Times,serif" font-size="14.00">parents_symbols</text>
<text text-anchor="start" x="1074" y="-1269.3" font-family="Times,serif" font-size="14.00">parents_symbols?</text>
<text text-anchor="start" x="1074" y="-1254.3" font-family="Times,serif" font-size="14.00">resource_class</text>
<text text-anchor="start" x="1074" y="-1239.3" font-family="Times,serif" font-size="14.00">resource_class?</text>
<text text-anchor="start" x="1074" y="-1224.3" font-family="Times,serif" font-size="14.00">resource_path</text>
<text text-anchor="start" x="1074" y="-1209.3" font-family="Times,serif" font-size="14.00">resource_url</text>
<text text-anchor="start" x="1074" y="-1194.3" font-family="Times,serif" font-size="14.00">resources_configuration</text>
<text text-anchor="start" x="1074" y="-1179.3" font-family="Times,serif" font-size="14.00">resources_configuration?</text>
<polyline fill="none" stroke="black" points="1066,-1171.5 1248,-1171.5 "/>
<text text-anchor="start" x="1074" y="-1156.3" font-family="Times,serif" font-size="14.00">_layout</text>
</g>
<!-- Admin::UsersController -->
<g id="node13" class="node"><title>Admin::UsersController</title>
<path fill="none" stroke="black" d="M504,-902.5C504,-902.5 633,-902.5 633,-902.5 639,-902.5 645,-908.5 645,-914.5 645,-914.5 645,-1207.5 645,-1207.5 645,-1213.5 639,-1219.5 633,-1219.5 633,-1219.5 504,-1219.5 504,-1219.5 498,-1219.5 492,-1213.5 492,-1207.5 492,-1207.5 492,-914.5 492,-914.5 492,-908.5 498,-902.5 504,-902.5"/>
<text text-anchor="middle" x="568.5" y="-1204.3" font-family="Times,serif" font-size="14.00">Admin::UsersController</text>
<polyline fill="none" stroke="black" points="492,-1196.5 645,-1196.5 "/>
<text text-anchor="start" x="500" y="-1181.3" font-family="Times,serif" font-size="14.00">index</text>
<text text-anchor="start" x="500" y="-1166.3" font-family="Times,serif" font-size="14.00">show</text>
<text text-anchor="start" x="500" y="-1151.3" font-family="Times,serif" font-size="14.00">unsorted</text>
<polyline fill="none" stroke="black" points="492,-1143.5 645,-1143.5 "/>
<text text-anchor="start" x="500" y="-1128.3" font-family="Times,serif" font-size="14.00">collection_path</text>
<text text-anchor="start" x="500" y="-1113.3" font-family="Times,serif" font-size="14.00">collection_url</text>
<text text-anchor="start" x="500" y="-1098.3" font-family="Times,serif" font-size="14.00">edit_resource_path</text>
<text text-anchor="start" x="500" y="-1083.3" font-family="Times,serif" font-size="14.00">edit_resource_url</text>
<text text-anchor="start" x="500" y="-1068.3" font-family="Times,serif" font-size="14.00">new_resource_path</text>
<text text-anchor="start" x="500" y="-1053.3" font-family="Times,serif" font-size="14.00">new_resource_url</text>
<text text-anchor="start" x="500" y="-1038.3" font-family="Times,serif" font-size="14.00">parents_symbols</text>
<text text-anchor="start" x="500" y="-1023.3" font-family="Times,serif" font-size="14.00">parents_symbols?</text>
<text text-anchor="start" x="500" y="-1008.3" font-family="Times,serif" font-size="14.00">resource_class</text>
<text text-anchor="start" x="500" y="-993.3" font-family="Times,serif" font-size="14.00">resource_class?</text>
<text text-anchor="start" x="500" y="-978.3" font-family="Times,serif" font-size="14.00">resource_path</text>
<text text-anchor="start" x="500" y="-963.3" font-family="Times,serif" font-size="14.00">resource_url</text>
<text text-anchor="start" x="500" y="-948.3" font-family="Times,serif" font-size="14.00">resources_configuration</text>
<text text-anchor="start" x="500" y="-933.3" font-family="Times,serif" font-size="14.00">resources_configuration?</text>
<polyline fill="none" stroke="black" points="492,-925.5 645,-925.5 "/>
<text text-anchor="start" x="500" y="-910.3" font-family="Times,serif" font-size="14.00">_layout</text>
</g>
<!-- Admin::BaseController -->
<g id="node14" class="node"><title>Admin::BaseController</title>
<path fill="none" stroke="black" d="M955,-779.5C955,-779.5 1135,-779.5 1135,-779.5 1141,-779.5 1147,-785.5 1147,-791.5 1147,-791.5 1147,-875.5 1147,-875.5 1147,-881.5 1141,-887.5 1135,-887.5 1135,-887.5 955,-887.5 955,-887.5 949,-887.5 943,-881.5 943,-875.5 943,-875.5 943,-791.5 943,-791.5 943,-785.5 949,-779.5 955,-779.5"/>
<text text-anchor="middle" x="1045" y="-872.3" font-family="Times,serif" font-size="14.00">Admin::BaseController</text>
<polyline fill="none" stroke="black" points="943,-864.5 1147,-864.5 "/>
<text text-anchor="start" x="951" y="-849.3" font-family="Times,serif" font-size="14.00">_one_time_conditions_valid_158?</text>
<text text-anchor="start" x="951" y="-834.3" font-family="Times,serif" font-size="14.00">_one_time_conditions_valid_160?</text>
<polyline fill="none" stroke="black" points="943,-826.5 1147,-826.5 "/>
<polyline fill="none" stroke="black" points="943,-802.5 1147,-802.5 "/>
<text text-anchor="start" x="951" y="-787.3" font-family="Times,serif" font-size="14.00">_layout</text>
</g>
<!-- Admin::TreesController -->
<g id="node15" class="node"><title>Admin::TreesController</title>
<path fill="none" stroke="black" d="M12,-246.5C12,-246.5 141,-246.5 141,-246.5 147,-246.5 153,-252.5 153,-258.5 153,-258.5 153,-536.5 153,-536.5 153,-542.5 147,-548.5 141,-548.5 141,-548.5 12,-548.5 12,-548.5 6,-548.5 0,-542.5 0,-536.5 0,-536.5 0,-258.5 0,-258.5 0,-252.5 6,-246.5 12,-246.5"/>
<text text-anchor="middle" x="76.5" y="-533.3" font-family="Times,serif" font-size="14.00">Admin::TreesController</text>
<polyline fill="none" stroke="black" points="0,-525.5 153,-525.5 "/>
<text text-anchor="start" x="8" y="-510.3" font-family="Times,serif" font-size="14.00">index</text>
<text text-anchor="start" x="8" y="-495.3" font-family="Times,serif" font-size="14.00">show</text>
<polyline fill="none" stroke="black" points="0,-487.5 153,-487.5 "/>
<text text-anchor="start" x="8" y="-472.3" font-family="Times,serif" font-size="14.00">collection_path</text>
<text text-anchor="start" x="8" y="-457.3" font-family="Times,serif" font-size="14.00">collection_url</text>
<text text-anchor="start" x="8" y="-442.3" font-family="Times,serif" font-size="14.00">edit_resource_path</text>
<text text-anchor="start" x="8" y="-427.3" font-family="Times,serif" font-size="14.00">edit_resource_url</text>
<text text-anchor="start" x="8" y="-412.3" font-family="Times,serif" font-size="14.00">new_resource_path</text>
<text text-anchor="start" x="8" y="-397.3" font-family="Times,serif" font-size="14.00">new_resource_url</text>
<text text-anchor="start" x="8" y="-382.3" font-family="Times,serif" font-size="14.00">parents_symbols</text>
<text text-anchor="start" x="8" y="-367.3" font-family="Times,serif" font-size="14.00">parents_symbols?</text>
<text text-anchor="start" x="8" y="-352.3" font-family="Times,serif" font-size="14.00">resource_class</text>
<text text-anchor="start" x="8" y="-337.3" font-family="Times,serif" font-size="14.00">resource_class?</text>
<text text-anchor="start" x="8" y="-322.3" font-family="Times,serif" font-size="14.00">resource_path</text>
<text text-anchor="start" x="8" y="-307.3" font-family="Times,serif" font-size="14.00">resource_url</text>
<text text-anchor="start" x="8" y="-292.3" font-family="Times,serif" font-size="14.00">resources_configuration</text>
<text text-anchor="start" x="8" y="-277.3" font-family="Times,serif" font-size="14.00">resources_configuration?</text>
<polyline fill="none" stroke="black" points="0,-269.5 153,-269.5 "/>
<text text-anchor="start" x="8" y="-254.3" font-family="Times,serif" font-size="14.00">_layout</text>
</g>
<!-- Devise::RegistrationsController -->
<g id="node18" class="node"><title>Devise::RegistrationsController</title>
<ellipse fill="none" stroke="black" cx="1228.46" cy="-1031" rx="122.379" ry="18"/>
<text text-anchor="middle" x="1228.46" y="-1027.3" font-family="Times,serif" font-size="14.00">Devise::RegistrationsController</text>
</g>
<!-- Devise::RegistrationsController&#45;&gt;Users::RegistrationsController -->
<g id="edge5" class="edge"><title>Devise::RegistrationsController&#45;&gt;Users::RegistrationsController</title>
<path fill="none" stroke="black" d="M1106.24,-1031C1098.85,-1031 1091.49,-1031 1084.26,-1031"/>
</g>
<!-- Devise::OmniauthCallbacksController -->
<g id="node19" class="node"><title>Devise::OmniauthCallbacksController</title>
<ellipse fill="none" stroke="black" cx="1280.31" cy="-293" rx="146.474" ry="18"/>
<text text-anchor="middle" x="1280.31" y="-289.3" font-family="Times,serif" font-size="14.00">Devise::OmniauthCallbacksController</text>
</g>
<!-- Devise::OmniauthCallbacksController&#45;&gt;Users::OmniauthCallbacksController -->
<g id="edge6" class="edge"><title>Devise::OmniauthCallbacksController&#45;&gt;Users::OmniauthCallbacksController</title>
<path fill="none" stroke="black" d="M1133.84,-293C1129.27,-293 1124.72,-293 1120.22,-293"/>
</g>
</g>
</svg>
