<?xml version="1.0" encoding="UTF-8" standalone="no"?>
<!DOCTYPE svg PUBLIC "-//W3C//DTD SVG 1.1//EN"
 "http://www.w3.org/Graphics/SVG/1.1/DTD/svg11.dtd">
<!-- Generated by graphviz version 2.36.0 (20140111.2315)
 -->
<!-- Title: models_diagram Pages: 1 -->
<svg width="645pt" height="302pt"
 viewBox="0.00 0.00 645.42 302.00" xmlns="http://www.w3.org/2000/svg" xmlns:xlink="http://www.w3.org/1999/xlink">
<g id="graph0" class="graph" transform="scale(1 1) rotate(0) translate(4 298)">
<title>models_diagram</title>
<polygon fill="white" stroke="none" points="-4,4 -4,-298 641.418,-298 641.418,4 -4,4"/>
<!-- _diagram_info -->
<g id="node1" class="node"><title>_diagram_info</title>
<text text-anchor="start" x="8" y="-279.6" font-family="Times,serif" font-size="13.00">Models diagram</text>
<text text-anchor="start" x="8" y="-265.6" font-family="Times,serif" font-size="13.00">Date: Jun 09 2014 &#45; 13:27</text>
<text text-anchor="start" x="8" y="-251.6" font-family="Times,serif" font-size="13.00">Migration version: 20140326155410</text>
<text text-anchor="start" x="8" y="-237.6" font-family="Times,serif" font-size="13.00">Generated by RailRoady 1.1.1</text>
<text text-anchor="start" x="8" y="-223.6" font-family="Times,serif" font-size="13.00">http://railroady.prestonlee.com</text>
</g>
<!-- Tree -->
<g id="node2" class="node"><title>Tree</title>
<ellipse fill="none" stroke="black" cx="96" cy="-162" rx="27" ry="18"/>
<text text-anchor="middle" x="96" y="-158.3" font-family="Times,serif" font-size="14.00">Tree</text>
</g>
<!-- User -->
<g id="node9" class="node"><title>User</title>
<ellipse fill="none" stroke="black" cx="214" cy="-90" rx="26.949" ry="18"/>
<text text-anchor="middle" x="214" y="-86.3" font-family="Times,serif" font-size="14.00">User</text>
</g>
<!-- Tree&#45;&gt;User -->
<g id="edge1" class="edge"><title>Tree&#45;&gt;User</title>
<path fill="none" stroke="#9189d1" d="M122.533,-145.26C141.387,-134.075 166.665,-119.08 185.868,-107.688"/>
<ellipse fill="none" stroke="#9189d1" cx="118.926" cy="-147.4" rx="4.00002" ry="4.00002"/>
<polygon fill="#9189d1" stroke="#9189d1" points="185.885,-107.678 196.782,-106.447 190.185,-105.127 194.486,-102.576 194.486,-102.576 194.486,-102.576 190.185,-105.127 192.19,-98.706 185.885,-107.678 185.885,-107.678"/>
</g>
<!-- Admin -->
<g id="node3" class="node"><title>Admin</title>
<ellipse fill="none" stroke="black" cx="177" cy="-162" rx="35.6194" ry="18"/>
<text text-anchor="middle" x="177" y="-158.3" font-family="Times,serif" font-size="14.00">Admin</text>
</g>
<!-- Post -->
<g id="node4" class="node"><title>Post</title>
<ellipse fill="none" stroke="black" cx="258" cy="-162" rx="27" ry="18"/>
<text text-anchor="middle" x="258" y="-158.3" font-family="Times,serif" font-size="14.00">Post</text>
</g>
<!-- Ckeditor::Asset -->
<g id="node5" class="node"><title>Ckeditor::Asset</title>
<ellipse fill="none" stroke="black" cx="522" cy="-162" rx="65.4659" ry="18"/>
<text text-anchor="middle" x="522" y="-158.3" font-family="Times,serif" font-size="14.00">Ckeditor::Asset</text>
</g>
<!-- Ckeditor::Picture -->
<g id="node6" class="node"><title>Ckeditor::Picture</title>
<ellipse fill="none" stroke="black" cx="331" cy="-90" rx="71.2405" ry="18"/>
<text text-anchor="middle" x="331" y="-86.3" font-family="Times,serif" font-size="14.00">Ckeditor::Picture</text>
</g>
<!-- Ckeditor::Asset&#45;&gt;Ckeditor::Picture -->
<g id="edge6" class="edge"><title>Ckeditor::Asset&#45;&gt;Ckeditor::Picture</title>
<path fill="none" stroke="black" d="M484.265,-147.17C451.106,-135.018 403.065,-117.411 369.639,-105.161"/>
</g>
<!-- Ckeditor::AttachmentFile -->
<g id="node7" class="node"><title>Ckeditor::AttachmentFile</title>
<ellipse fill="none" stroke="black" cx="522" cy="-90" rx="101.087" ry="18"/>
<text text-anchor="middle" x="522" y="-86.3" font-family="Times,serif" font-size="14.00">Ckeditor::AttachmentFile</text>
</g>
<!-- Ckeditor::Asset&#45;&gt;Ckeditor::AttachmentFile -->
<g id="edge7" class="edge"><title>Ckeditor::Asset&#45;&gt;Ckeditor::AttachmentFile</title>
<path fill="none" stroke="black" d="M522,-143.697C522,-132.846 522,-118.917 522,-108.104"/>
</g>
<!-- Dashboard -->
<g id="node8" class="node"><title>Dashboard</title>
<ellipse fill="none" stroke="black" cx="390" cy="-162" rx="48.6179" ry="18"/>
<text text-anchor="middle" x="390" y="-158.3" font-family="Times,serif" font-size="14.00">Dashboard</text>
</g>
<!-- Event -->
<g id="node10" class="node"><title>Event</title>
<ellipse fill="none" stroke="black" cx="432" cy="-18" rx="31.2965" ry="18"/>
<text text-anchor="middle" x="432" y="-14.3" font-family="Times,serif" font-size="14.00">Event</text>
</g>
<!-- User&#45;&gt;Event -->
<g id="edge9" class="edge"><title>User&#45;&gt;Event</title>
<path fill="none" stroke="#8383f8" d="M242.623,-75.3538C245.431,-74.1649 248.256,-73.0258 251,-72 299.499,-53.868 357.144,-37.9138 394.131,-28.3653"/>
<ellipse fill="none" stroke="#8383f8" cx="238.96" cy="-76.964" rx="4.00002" ry="4.00002"/>
<polygon fill="#8383f8" stroke="#8383f8" points="394.302,-28.3217 405.105,-30.2054 399.146,-27.0836 403.991,-25.8456 403.991,-25.8456 403.991,-25.8456 399.146,-27.0836 402.876,-21.4857 394.302,-28.3217 394.302,-28.3217"/>
</g>
<!-- ActiveRecord::Base -->
<g id="node11" class="node"><title>ActiveRecord::Base</title>
<ellipse fill="none" stroke="black" cx="313" cy="-255" rx="81.3646" ry="18"/>
<text text-anchor="middle" x="313" y="-251.3" font-family="Times,serif" font-size="14.00">ActiveRecord::Base</text>
</g>
<!-- ActiveRecord::Base&#45;&gt;Tree -->
<g id="edge2" class="edge"><title>ActiveRecord::Base&#45;&gt;Tree</title>
<path fill="none" stroke="black" d="M276.741,-238.712C260.088,-231.728 240.067,-223.385 222,-216 182.122,-199.699 171.496,-197.206 132,-180 127.184,-177.902 122.055,-175.551 117.223,-173.283"/>
</g>
<!-- ActiveRecord::Base&#45;&gt;Admin -->
<g id="edge3" class="edge"><title>ActiveRecord::Base&#45;&gt;Admin</title>
<path fill="none" stroke="black" d="M288.686,-237.731C262.709,-220.349 221.981,-193.098 197.549,-176.75"/>
</g>
<!-- ActiveRecord::Base&#45;&gt;Post -->
<g id="edge4" class="edge"><title>ActiveRecord::Base&#45;&gt;Post</title>
<path fill="none" stroke="black" d="M302.655,-236.884C292.635,-220.305 277.556,-195.357 267.745,-179.123"/>
</g>
<!-- ActiveRecord::Base&#45;&gt;Ckeditor::Asset -->
<g id="edge5" class="edge"><title>ActiveRecord::Base&#45;&gt;Ckeditor::Asset</title>
<path fill="none" stroke="black" d="M348.454,-238.563C387.585,-221.525 450.097,-194.307 488.45,-177.608"/>
</g>
<!-- ActiveRecord::Base&#45;&gt;Dashboard -->
<g id="edge8" class="edge"><title>ActiveRecord::Base&#45;&gt;Dashboard</title>
<path fill="none" stroke="black" d="M327.483,-236.884C341.424,-220.408 362.359,-195.666 376.1,-179.427"/>
</g>
<!-- ActiveRecord::Base&#45;&gt;User -->
<g id="edge10" class="edge"><title>ActiveRecord::Base&#45;&gt;User</title>
<path fill="none" stroke="black" d="M314.056,-236.855C314.634,-213.843 312.646,-172.561 294,-144 286.486,-132.491 255.425,-113.8 234.291,-101.967"/>
</g>
<!-- ActiveRecord::Base&#45;&gt;Event -->
<g id="edge11" class="edge"><title>ActiveRecord::Base&#45;&gt;Event</title>
<path fill="none" stroke="black" d="M392.007,-250.721C453.602,-244.385 538.119,-226.945 596,-180 623.787,-157.463 623.78,-142.82 632,-108 635.676,-92.428 641.758,-84.6802 632,-72 611.408,-45.2404 513.199,-29.2007 462.479,-22.5677"/>
</g>
</g>
</svg>
