<?xml version="1.0" encoding="UTF-8" standalone="no"?>
<!DOCTYPE svg PUBLIC "-//W3C//DTD SVG 1.1//EN"
 "http://www.w3.org/Graphics/SVG/1.1/DTD/svg11.dtd">
<!-- Generated by graphviz version 2.36.0 (20140111.2315)
 -->
<!-- Title: models_diagram Pages: 1 -->
<svg width="937pt" height="1088pt"
 viewBox="0.00 0.00 937.02 1088.00" xmlns="http://www.w3.org/2000/svg" xmlns:xlink="http://www.w3.org/1999/xlink">
<g id="graph0" class="graph" transform="scale(1 1) rotate(0) translate(4 1084)">
<title>models_diagram</title>
<polygon fill="white" stroke="none" points="-4,4 -4,-1084 933.024,-1084 933.024,4 -4,4"/>
<!-- _diagram_info -->
<g id="node1" class="node"><title>_diagram_info</title>
<text text-anchor="start" x="222" y="-1065.6" font-family="Times,serif" font-size="13.00">Models diagram</text>
<text text-anchor="start" x="222" y="-1051.6" font-family="Times,serif" font-size="13.00">Date: Jun 09 2014 &#45; 13:27</text>
<text text-anchor="start" x="222" y="-1037.6" font-family="Times,serif" font-size="13.00">Migration version: 20140326155410</text>
<text text-anchor="start" x="222" y="-1023.6" font-family="Times,serif" font-size="13.00">Generated by RailRoady 1.1.1</text>
<text text-anchor="start" x="222" y="-1009.6" font-family="Times,serif" font-size="13.00">http://railroady.prestonlee.com</text>
</g>
<!-- Tree -->
<g id="node2" class="node"><title>Tree</title>
<path fill="none" stroke="black" d="M11.5,-791.5C11.5,-791.5 118.5,-791.5 118.5,-791.5 124.5,-791.5 130.5,-797.5 130.5,-803.5 130.5,-803.5 130.5,-900.5 130.5,-900.5 130.5,-906.5 124.5,-912.5 118.5,-912.5 118.5,-912.5 11.5,-912.5 11.5,-912.5 5.5,-912.5 -0.5,-906.5 -0.5,-900.5 -0.5,-900.5 -0.5,-803.5 -0.5,-803.5 -0.5,-797.5 5.5,-791.5 11.5,-791.5"/>
<text text-anchor="middle" x="65" y="-897.3" font-family="Times,serif" font-size="14.00">Tree</text>
<polyline fill="none" stroke="black" points="-0.5,-889.5 130.5,-889.5 "/>
<text text-anchor="start" x="7.5" y="-874.3" font-family="Times,serif" font-size="14.00">id :integer</text>
<text text-anchor="start" x="7.5" y="-859.3" font-family="Times,serif" font-size="14.00">title :string</text>
<text text-anchor="start" x="7.5" y="-844.3" font-family="Times,serif" font-size="14.00">desc :text</text>
<text text-anchor="start" x="7.5" y="-829.3" font-family="Times,serif" font-size="14.00">img :string</text>
<text text-anchor="start" x="7.5" y="-814.3" font-family="Times,serif" font-size="14.00">created_at :datetime</text>
<text text-anchor="start" x="7.5" y="-799.3" font-family="Times,serif" font-size="14.00">updated_at :datetime</text>
</g>
<!-- User -->
<g id="node9" class="node"><title>User</title>
<path fill="none" stroke="black" d="M326,-205C326,-205 502,-205 502,-205 508,-205 514,-211 514,-217 514,-217 514,-689 514,-689 514,-695 508,-701 502,-701 502,-701 326,-701 326,-701 320,-701 314,-695 314,-689 314,-689 314,-217 314,-217 314,-211 320,-205 326,-205"/>
<text text-anchor="middle" x="414" y="-685.8" font-family="Times,serif" font-size="14.00">User</text>
<polyline fill="none" stroke="black" points="314,-678 514,-678 "/>
<text text-anchor="start" x="322" y="-662.8" font-family="Times,serif" font-size="14.00">id :integer</text>
<text text-anchor="start" x="322" y="-647.8" font-family="Times,serif" font-size="14.00">email :string</text>
<text text-anchor="start" x="322" y="-632.8" font-family="Times,serif" font-size="14.00">encrypted_password :string</text>
<text text-anchor="start" x="322" y="-617.8" font-family="Times,serif" font-size="14.00">avatar_url :string</text>
<text text-anchor="start" x="322" y="-602.8" font-family="Times,serif" font-size="14.00">first_name :string</text>
<text text-anchor="start" x="322" y="-587.8" font-family="Times,serif" font-size="14.00">last_name :string</text>
<text text-anchor="start" x="322" y="-572.8" font-family="Times,serif" font-size="14.00">sex :string</text>
<text text-anchor="start" x="322" y="-557.8" font-family="Times,serif" font-size="14.00">birthday :string</text>
<text text-anchor="start" x="322" y="-542.8" font-family="Times,serif" font-size="14.00">job :string</text>
<text text-anchor="start" x="322" y="-527.8" font-family="Times,serif" font-size="14.00">skype :string</text>
<text text-anchor="start" x="322" y="-512.8" font-family="Times,serif" font-size="14.00">city :string</text>
<text text-anchor="start" x="322" y="-497.8" font-family="Times,serif" font-size="14.00">desc :text</text>
<text text-anchor="start" x="322" y="-482.8" font-family="Times,serif" font-size="14.00">home_tel :string</text>
<text text-anchor="start" x="322" y="-467.8" font-family="Times,serif" font-size="14.00">mobile_tel :string</text>
<text text-anchor="start" x="322" y="-452.8" font-family="Times,serif" font-size="14.00">work_tel :string</text>
<text text-anchor="start" x="322" y="-437.8" font-family="Times,serif" font-size="14.00">tree_id :integer</text>
<text text-anchor="start" x="322" y="-422.8" font-family="Times,serif" font-size="14.00">lenguage :string</text>
<text text-anchor="start" x="322" y="-407.8" font-family="Times,serif" font-size="14.00">reset_password_token :string</text>
<text text-anchor="start" x="322" y="-392.8" font-family="Times,serif" font-size="14.00">reset_password_sent_at :datetime</text>
<text text-anchor="start" x="322" y="-377.8" font-family="Times,serif" font-size="14.00">remember_created_at :datetime</text>
<text text-anchor="start" x="322" y="-362.8" font-family="Times,serif" font-size="14.00">sign_in_count :integer</text>
<text text-anchor="start" x="322" y="-347.8" font-family="Times,serif" font-size="14.00">current_sign_in_at :datetime</text>
<text text-anchor="start" x="322" y="-332.8" font-family="Times,serif" font-size="14.00">last_sign_in_at :datetime</text>
<text text-anchor="start" x="322" y="-317.8" font-family="Times,serif" font-size="14.00">current_sign_in_ip :string</text>
<text text-anchor="start" x="322" y="-302.8" font-family="Times,serif" font-size="14.00">last_sign_in_ip :string</text>
<text text-anchor="start" x="322" y="-287.8" font-family="Times,serif" font-size="14.00">confirmation_token :string</text>
<text text-anchor="start" x="322" y="-272.8" font-family="Times,serif" font-size="14.00">confirmed_at :datetime</text>
<text text-anchor="start" x="322" y="-257.8" font-family="Times,serif" font-size="14.00">confirmation_sent_at :datetime</text>
<text text-anchor="start" x="322" y="-242.8" font-family="Times,serif" font-size="14.00">unconfirmed_email :string</text>
<text text-anchor="start" x="322" y="-227.8" font-family="Times,serif" font-size="14.00">created_at :datetime</text>
<text text-anchor="start" x="322" y="-212.8" font-family="Times,serif" font-size="14.00">updated_at :datetime</text>
</g>
<!-- Tree&#45;&gt;User -->
<g id="edge1" class="edge"><title>Tree&#45;&gt;User</title>
<path fill="none" stroke="#0e719d" d="M106.482,-784.131C116.902,-768.6 128.428,-752.407 140,-738 191.119,-674.359 254.007,-608.44 306.635,-556.148"/>
<ellipse fill="none" stroke="#0e719d" cx="103.99" cy="-787.88" rx="4.00002" ry="4.00002"/>
<polygon fill="#0e719d" stroke="#0e719d" points="306.886,-555.899 317.157,-552.058 310.438,-552.38 313.991,-548.861 313.991,-548.861 313.991,-548.861 310.438,-552.38 310.824,-545.664 306.886,-555.899 306.886,-555.899"/>
</g>
<!-- Admin -->
<g id="node3" class="node"><title>Admin</title>
<path fill="none" stroke="black" d="M161,-739C161,-739 337,-739 337,-739 343,-739 349,-745 349,-751 349,-751 349,-953 349,-953 349,-959 343,-965 337,-965 337,-965 161,-965 161,-965 155,-965 149,-959 149,-953 149,-953 149,-751 149,-751 149,-745 155,-739 161,-739"/>
<text text-anchor="middle" x="249" y="-949.8" font-family="Times,serif" font-size="14.00">Admin</text>
<polyline fill="none" stroke="black" points="149,-942 349,-942 "/>
<text text-anchor="start" x="157" y="-926.8" font-family="Times,serif" font-size="14.00">id :integer</text>
<text text-anchor="start" x="157" y="-911.8" font-family="Times,serif" font-size="14.00">email :string</text>
<text text-anchor="start" x="157" y="-896.8" font-family="Times,serif" font-size="14.00">encrypted_password :string</text>
<text text-anchor="start" x="157" y="-881.8" font-family="Times,serif" font-size="14.00">reset_password_token :string</text>
<text text-anchor="start" x="157" y="-866.8" font-family="Times,serif" font-size="14.00">reset_password_sent_at :datetime</text>
<text text-anchor="start" x="157" y="-851.8" font-family="Times,serif" font-size="14.00">remember_created_at :datetime</text>
<text text-anchor="start" x="157" y="-836.8" font-family="Times,serif" font-size="14.00">sign_in_count :integer</text>
<text text-anchor="start" x="157" y="-821.8" font-family="Times,serif" font-size="14.00">current_sign_in_at :datetime</text>
<text text-anchor="start" x="157" y="-806.8" font-family="Times,serif" font-size="14.00">last_sign_in_at :datetime</text>
<text text-anchor="start" x="157" y="-791.8" font-family="Times,serif" font-size="14.00">current_sign_in_ip :string</text>
<text text-anchor="start" x="157" y="-776.8" font-family="Times,serif" font-size="14.00">last_sign_in_ip :string</text>
<text text-anchor="start" x="157" y="-761.8" font-family="Times,serif" font-size="14.00">created_at :datetime</text>
<text text-anchor="start" x="157" y="-746.8" font-family="Times,serif" font-size="14.00">updated_at :datetime</text>
</g>
<!-- Post -->
<g id="node4" class="node"><title>Post</title>
<path fill="none" stroke="black" d="M379.5,-799C379.5,-799 486.5,-799 486.5,-799 492.5,-799 498.5,-805 498.5,-811 498.5,-811 498.5,-893 498.5,-893 498.5,-899 492.5,-905 486.5,-905 486.5,-905 379.5,-905 379.5,-905 373.5,-905 367.5,-899 367.5,-893 367.5,-893 367.5,-811 367.5,-811 367.5,-805 373.5,-799 379.5,-799"/>
<text text-anchor="middle" x="433" y="-889.8" font-family="Times,serif" font-size="14.00">Post</text>
<polyline fill="none" stroke="black" points="367.5,-882 498.5,-882 "/>
<text text-anchor="start" x="375.5" y="-866.8" font-family="Times,serif" font-size="14.00">id :integer</text>
<text text-anchor="start" x="375.5" y="-851.8" font-family="Times,serif" font-size="14.00">email :string</text>
<text text-anchor="start" x="375.5" y="-836.8" font-family="Times,serif" font-size="14.00">title :string</text>
<text text-anchor="start" x="375.5" y="-821.8" font-family="Times,serif" font-size="14.00">created_at :datetime</text>
<text text-anchor="start" x="375.5" y="-806.8" font-family="Times,serif" font-size="14.00">updated_at :datetime</text>
</g>
<!-- Ckeditor::Asset -->
<g id="node5" class="node"><title>Ckeditor::Asset</title>
<path fill="none" stroke="black" d="M717,-754C717,-754 847,-754 847,-754 853,-754 859,-760 859,-766 859,-766 859,-938 859,-938 859,-944 853,-950 847,-950 847,-950 717,-950 717,-950 711,-950 705,-944 705,-938 705,-938 705,-766 705,-766 705,-760 711,-754 717,-754"/>
<text text-anchor="middle" x="782" y="-934.8" font-family="Times,serif" font-size="14.00">Ckeditor::Asset</text>
<polyline fill="none" stroke="black" points="705,-927 859,-927 "/>
<text text-anchor="start" x="713" y="-911.8" font-family="Times,serif" font-size="14.00">id :integer</text>
<text text-anchor="start" x="713" y="-896.8" font-family="Times,serif" font-size="14.00">data_file_name :string</text>
<text text-anchor="start" x="713" y="-881.8" font-family="Times,serif" font-size="14.00">data_content_type :string</text>
<text text-anchor="start" x="713" y="-866.8" font-family="Times,serif" font-size="14.00">data_file_size :integer</text>
<text text-anchor="start" x="713" y="-851.8" font-family="Times,serif" font-size="14.00">assetable_id :integer</text>
<text text-anchor="start" x="713" y="-836.8" font-family="Times,serif" font-size="14.00">assetable_type :string</text>
<text text-anchor="start" x="713" y="-821.8" font-family="Times,serif" font-size="14.00">type :string</text>
<text text-anchor="start" x="713" y="-806.8" font-family="Times,serif" font-size="14.00">width :integer</text>
<text text-anchor="start" x="713" y="-791.8" font-family="Times,serif" font-size="14.00">height :integer</text>
<text text-anchor="start" x="713" y="-776.8" font-family="Times,serif" font-size="14.00">created_at :datetime</text>
<text text-anchor="start" x="713" y="-761.8" font-family="Times,serif" font-size="14.00">updated_at :datetime</text>
</g>
<!-- Ckeditor::Picture -->
<g id="node6" class="node"><title>Ckeditor::Picture</title>
<path fill="none" stroke="black" d="M544,-355C544,-355 674,-355 674,-355 680,-355 686,-361 686,-367 686,-367 686,-539 686,-539 686,-545 680,-551 674,-551 674,-551 544,-551 544,-551 538,-551 532,-545 532,-539 532,-539 532,-367 532,-367 532,-361 538,-355 544,-355"/>
<text text-anchor="middle" x="609" y="-535.8" font-family="Times,serif" font-size="14.00">Ckeditor::Picture</text>
<polyline fill="none" stroke="black" points="532,-528 686,-528 "/>
<text text-anchor="start" x="540" y="-512.8" font-family="Times,serif" font-size="14.00">id :integer</text>
<text text-anchor="start" x="540" y="-497.8" font-family="Times,serif" font-size="14.00">data_file_name :string</text>
<text text-anchor="start" x="540" y="-482.8" font-family="Times,serif" font-size="14.00">data_content_type :string</text>
<text text-anchor="start" x="540" y="-467.8" font-family="Times,serif" font-size="14.00">data_file_size :integer</text>
<text text-anchor="start" x="540" y="-452.8" font-family="Times,serif" font-size="14.00">assetable_id :integer</text>
<text text-anchor="start" x="540" y="-437.8" font-family="Times,serif" font-size="14.00">assetable_type :string</text>
<text text-anchor="start" x="540" y="-422.8" font-family="Times,serif" font-size="14.00">type :string</text>
<text text-anchor="start" x="540" y="-407.8" font-family="Times,serif" font-size="14.00">width :integer</text>
<text text-anchor="start" x="540" y="-392.8" font-family="Times,serif" font-size="14.00">height :integer</text>
<text text-anchor="start" x="540" y="-377.8" font-family="Times,serif" font-size="14.00">created_at :datetime</text>
<text text-anchor="start" x="540" y="-362.8" font-family="Times,serif" font-size="14.00">updated_at :datetime</text>
</g>
<!-- Ckeditor::Asset&#45;&gt;Ckeditor::Picture -->
<g id="edge6" class="edge"><title>Ckeditor::Asset&#45;&gt;Ckeditor::Picture</title>
<path fill="none" stroke="black" d="M721.661,-753.864C712.16,-736.875 702.887,-719.145 695,-702 672.718,-653.561 652.84,-597.597 637.822,-551.104"/>
</g>
<!-- Ckeditor::AttachmentFile -->
<g id="node7" class="node"><title>Ckeditor::AttachmentFile</title>
<path fill="none" stroke="black" d="M716,-355C716,-355 848,-355 848,-355 854,-355 860,-361 860,-367 860,-367 860,-539 860,-539 860,-545 854,-551 848,-551 848,-551 716,-551 716,-551 710,-551 704,-545 704,-539 704,-539 704,-367 704,-367 704,-361 710,-355 716,-355"/>
<text text-anchor="middle" x="782" y="-535.8" font-family="Times,serif" font-size="14.00">Ckeditor::AttachmentFile</text>
<polyline fill="none" stroke="black" points="704,-528 860,-528 "/>
<text text-anchor="start" x="712" y="-512.8" font-family="Times,serif" font-size="14.00">id :integer</text>
<text text-anchor="start" x="712" y="-497.8" font-family="Times,serif" font-size="14.00">data_file_name :string</text>
<text text-anchor="start" x="712" y="-482.8" font-family="Times,serif" font-size="14.00">data_content_type :string</text>
<text text-anchor="start" x="712" y="-467.8" font-family="Times,serif" font-size="14.00">data_file_size :integer</text>
<text text-anchor="start" x="712" y="-452.8" font-family="Times,serif" font-size="14.00">assetable_id :integer</text>
<text text-anchor="start" x="712" y="-437.8" font-family="Times,serif" font-size="14.00">assetable_type :string</text>
<text text-anchor="start" x="712" y="-422.8" font-family="Times,serif" font-size="14.00">type :string</text>
<text text-anchor="start" x="712" y="-407.8" font-family="Times,serif" font-size="14.00">width :integer</text>
<text text-anchor="start" x="712" y="-392.8" font-family="Times,serif" font-size="14.00">height :integer</text>
<text text-anchor="start" x="712" y="-377.8" font-family="Times,serif" font-size="14.00">created_at :datetime</text>
<text text-anchor="start" x="712" y="-362.8" font-family="Times,serif" font-size="14.00">updated_at :datetime</text>
</g>
<!-- Ckeditor::Asset&#45;&gt;Ckeditor::AttachmentFile -->
<g id="edge7" class="edge"><title>Ckeditor::Asset&#45;&gt;Ckeditor::AttachmentFile</title>
<path fill="none" stroke="black" d="M782,-753.883C782,-692.248 782,-612.787 782,-551.146"/>
</g>
<!-- Dashboard -->
<g id="node8" class="node"><title>Dashboard</title>
<path fill="none" stroke="black" d="M567.5,-799C567.5,-799 674.5,-799 674.5,-799 680.5,-799 686.5,-805 686.5,-811 686.5,-811 686.5,-893 686.5,-893 686.5,-899 680.5,-905 674.5,-905 674.5,-905 567.5,-905 567.5,-905 561.5,-905 555.5,-899 555.5,-893 555.5,-893 555.5,-811 555.5,-811 555.5,-805 561.5,-799 567.5,-799"/>
<text text-anchor="middle" x="621" y="-889.8" font-family="Times,serif" font-size="14.00">Dashboard</text>
<polyline fill="none" stroke="black" points="555.5,-882 686.5,-882 "/>
<text text-anchor="start" x="563.5" y="-866.8" font-family="Times,serif" font-size="14.00">id :integer</text>
<text text-anchor="start" x="563.5" y="-851.8" font-family="Times,serif" font-size="14.00">title :string</text>
<text text-anchor="start" x="563.5" y="-836.8" font-family="Times,serif" font-size="14.00">desc :text</text>
<text text-anchor="start" x="563.5" y="-821.8" font-family="Times,serif" font-size="14.00">created_at :datetime</text>
<text text-anchor="start" x="563.5" y="-806.8" font-family="Times,serif" font-size="14.00">updated_at :datetime</text>
</g>
<!-- Event -->
<g id="node10" class="node"><title>Event</title>
<path fill="none" stroke="black" d="M597.5,-1C597.5,-1 704.5,-1 704.5,-1 710.5,-1 716.5,-7 716.5,-13 716.5,-13 716.5,-155 716.5,-155 716.5,-161 710.5,-167 704.5,-167 704.5,-167 597.5,-167 597.5,-167 591.5,-167 585.5,-161 585.5,-155 585.5,-155 585.5,-13 585.5,-13 585.5,-7 591.5,-1 597.5,-1"/>
<text text-anchor="middle" x="651" y="-151.8" font-family="Times,serif" font-size="14.00">Event</text>
<polyline fill="none" stroke="black" points="585.5,-144 716.5,-144 "/>
<text text-anchor="start" x="593.5" y="-128.8" font-family="Times,serif" font-size="14.00">id :integer</text>
<text text-anchor="start" x="593.5" y="-113.8" font-family="Times,serif" font-size="14.00">title :string</text>
<text text-anchor="start" x="593.5" y="-98.8" font-family="Times,serif" font-size="14.00">starts_at :datetime</text>
<text text-anchor="start" x="593.5" y="-83.8" font-family="Times,serif" font-size="14.00">ends_at :datetime</text>
<text text-anchor="start" x="593.5" y="-68.8" font-family="Times,serif" font-size="14.00">all_day :boolean</text>
<text text-anchor="start" x="593.5" y="-53.8" font-family="Times,serif" font-size="14.00">description :text</text>
<text text-anchor="start" x="593.5" y="-38.8" font-family="Times,serif" font-size="14.00">user_id :integer</text>
<text text-anchor="start" x="593.5" y="-23.8" font-family="Times,serif" font-size="14.00">created_at :datetime</text>
<text text-anchor="start" x="593.5" y="-8.8" font-family="Times,serif" font-size="14.00">updated_at :datetime</text>
</g>
<!-- User&#45;&gt;Event -->
<g id="edge9" class="edge"><title>User&#45;&gt;Event</title>
<path fill="none" stroke="#1693c0" d="M518.822,-209.991C520.202,-207.974 521.595,-205.977 523,-204 538.432,-182.29 558.332,-161.476 577.821,-143.497"/>
<ellipse fill="none" stroke="#1693c0" cx="516.405" cy="-213.598" rx="4.00002" ry="4.00002"/>
<polygon fill="#1693c0" stroke="#1693c0" points="577.853,-143.468 588.283,-140.082 581.556,-140.108 585.259,-136.749 585.259,-136.749 585.259,-136.749 581.556,-140.108 582.236,-133.416 577.853,-143.468 577.853,-143.468"/>
</g>
<!-- ActiveRecord::Base -->
<g id="node11" class="node"><title>ActiveRecord::Base</title>
<ellipse fill="none" stroke="black" cx="527" cy="-1041" rx="81.3646" ry="18"/>
<text text-anchor="middle" x="527" y="-1037.3" font-family="Times,serif" font-size="14.00">ActiveRecord::Base</text>
</g>
<!-- ActiveRecord::Base&#45;&gt;Tree -->
<g id="edge2" class="edge"><title>ActiveRecord::Base&#45;&gt;Tree</title>
<path fill="none" stroke="black" d="M495.322,-1024.24C478.163,-1016.36 456.36,-1007.38 436,-1002 307.871,-968.148 252.777,-1035.6 140,-966 119.562,-953.387 103.504,-932.886 91.5804,-912.785"/>
</g>
<!-- ActiveRecord::Base&#45;&gt;Admin -->
<g id="edge3" class="edge"><title>ActiveRecord::Base&#45;&gt;Admin</title>
<path fill="none" stroke="black" d="M490.404,-1024.87C444.252,-1005.65 369.501,-974.005 358,-966 355.092,-963.976 352.198,-961.866 349.324,-959.684"/>
</g>
<!-- ActiveRecord::Base&#45;&gt;Post -->
<g id="edge4" class="edge"><title>ActiveRecord::Base&#45;&gt;Post</title>
<path fill="none" stroke="black" d="M518.492,-1023.08C505.251,-996.733 479.167,-944.843 459.276,-905.272"/>
</g>
<!-- ActiveRecord::Base&#45;&gt;Ckeditor::Asset -->
<g id="edge5" class="edge"><title>ActiveRecord::Base&#45;&gt;Ckeditor::Asset</title>
<path fill="none" stroke="black" d="M574.22,-1026.28C609.9,-1014.32 658.754,-994.41 695,-966 701.138,-961.189 707.083,-955.851 712.789,-950.188"/>
</g>
<!-- ActiveRecord::Base&#45;&gt;Dashboard -->
<g id="edge8" class="edge"><title>ActiveRecord::Base&#45;&gt;Dashboard</title>
<path fill="none" stroke="black" d="M535.508,-1023.08C548.749,-996.733 574.833,-944.843 594.724,-905.272"/>
</g>
<!-- ActiveRecord::Base&#45;&gt;User -->
<g id="edge10" class="edge"><title>ActiveRecord::Base&#45;&gt;User</title>
<path fill="none" stroke="black" d="M527.355,-1022.78C527.993,-976.333 527.68,-844.785 507,-738 504.657,-725.903 501.949,-713.606 498.962,-701.25"/>
</g>
<!-- ActiveRecord::Base&#45;&gt;Event -->
<g id="edge11" class="edge"><title>ActiveRecord::Base&#45;&gt;Event</title>
<path fill="none" stroke="black" d="M602.855,-1034.37C692.972,-1025.92 835.271,-1006.44 868,-966 923.737,-897.138 970.042,-374.272 869,-204 836.323,-148.934 768.201,-117.711 716.752,-101.198"/>
</g>
</g>
</svg>
